<?xml version="1.0" encoding="UTF-8" standalone="no"?>
<!-- Generator: Adobe Illustrator 16.0.0, SVG Export Plug-In . SVG Version: 6.00 Build 0)  -->

<svg
   xmlns:dc="http://purl.org/dc/elements/1.1/"
   xmlns:cc="http://creativecommons.org/ns#"
   xmlns:rdf="http://www.w3.org/1999/02/22-rdf-syntax-ns#"
   xmlns:svg="http://www.w3.org/2000/svg"
   xmlns="http://www.w3.org/2000/svg"
   xmlns:sodipodi="http://sodipodi.sourceforge.net/DTD/sodipodi-0.dtd"
   xmlns:inkscape="http://www.inkscape.org/namespaces/inkscape"
   version="1.1"
   id="Capa_1"
   x="0px"
   y="0px"
   width="485.221px"
   height="485.221px"
   viewBox="0 0 485.221 485.221"
   style="enable-background:new 0 0 485.221 485.221;"
   xml:space="preserve"
   inkscape:version="0.91 r13725"
   sodipodi:docname="businessman.svg"><metadata
     id="metadata41"><rdf:RDF><cc:Work
         rdf:about=""><dc:format>image/svg+xml</dc:format><dc:type
           rdf:resource="http://purl.org/dc/dcmitype/StillImage" /></cc:Work></rdf:RDF></metadata><defs
     id="defs39" /><sodipodi:namedview
     pagecolor="#ffffff"
     bordercolor="#666666"
     borderopacity="1"
     objecttolerance="10"
     gridtolerance="10"
     guidetolerance="10"
     inkscape:pageopacity="0"
     inkscape:pageshadow="2"
     inkscape:window-width="1301"
     inkscape:window-height="744"
     id="namedview37"
     showgrid="false"
     inkscape:zoom="0.9727526"
     inkscape:cx="379.18802"
     inkscape:cy="181.77112"
     inkscape:window-x="65"
     inkscape:window-y="24"
     inkscape:window-maximized="1"
     inkscape:current-layer="Capa_1" /><g
     id="g3"
     transform="matrix(0.67737145,0,0,0.60412903,2.0560826,-37.966973)"><path
       d="m 27.508839,318.35963 c -1.413748,0.22309 -2.805166,0.32331 -4.171942,0.32331 -11.0836,0 -20.9120752,-7.07509 -22.96416587,-17.11558 C -1.9095941,290.24598 6.5305433,279.40922 19.232715,277.37669 76.401729,268.18531 137.81122,242.20579 201.91576,200.47326 l -26.95438,-29.15292 128.61334,-19.17077 -45.67578,108.8824 -26.24519,-28.3793 C 160.27333,279.53141 93.322045,307.78921 27.508839,318.35963 Z m 42.553355,62.77453 -23.352254,0 c -12.883125,0 -23.352253,9.30944 -23.352253,20.81341 l 0,62.4519 c 0,11.50741 10.468358,20.81684 23.352253,20.81684 l 23.352254,0 c 12.906995,0 23.349942,-9.30943 23.349942,-20.81684 l 0,-62.4519 c 0,-11.50397 -10.442947,-20.81341 -23.349942,-20.81341 z m 186.808786,-83.26669 -23.35225,0 c -12.90469,0 -23.34764,9.30944 -23.34764,20.81547 l 0,145.71653 c 0,11.50741 10.44295,20.81684 23.34764,20.81684 l 23.35225,0 c 12.9093,0 23.35226,-9.30943 23.35226,-20.81684 l 0,-145.71653 c 0,-11.50534 -10.44372,-20.81547 -23.35226,-20.81547 z m 93.40747,-41.63437 -23.35533,0 c -12.90546,0 -23.3484,9.3115 -23.3484,20.81753 l 0,187.34953 c 0,11.5074 10.44294,20.81684 23.3484,20.81684 l 23.35533,0 c 12.90546,0 23.3484,-9.30944 23.3484,-20.81684 l 0,-187.35022 c 7.8e-4,-11.50534 -10.44294,-20.81684 -23.3484,-20.81684 z m -186.81187,83.266 -23.35071,0 c -12.88311,0 -23.35224,9.31287 -23.35224,20.81753 l 0,104.08353 c 0,11.5074 10.46835,20.81684 23.35224,20.81684 l 23.35071,0 c 12.90854,0 23.35148,-9.30944 23.35148,-20.81684 l 0,-104.08353 c 0,-11.50466 -10.44294,-20.81753 -23.35148,-20.81753 z"
       id="path5"
       inkscape:connector-curvature="0"
       style="fill:#f9f9f9" /></g><g
     id="g7" /><g
     id="g9" /><g
     id="g11" /><g
     id="g13" /><g
     id="g15" /><g
     id="g17" /><g
     id="g19" /><g
     id="g21" /><g
     id="g23" /><g
     id="g25" /><g
     id="g27" /><g
     id="g29" /><g
     id="g31" /><g
     id="g33" /><g
     id="g35" /></svg>