<?xml version="1.0" encoding="UTF-8" standalone="no"?>
<!-- Generator: Adobe Illustrator 16.0.0, SVG Export Plug-In . SVG Version: 6.00 Build 0)  -->

<svg
   xmlns:dc="http://purl.org/dc/elements/1.1/"
   xmlns:cc="http://creativecommons.org/ns#"
   xmlns:rdf="http://www.w3.org/1999/02/22-rdf-syntax-ns#"
   xmlns:svg="http://www.w3.org/2000/svg"
   xmlns="http://www.w3.org/2000/svg"
   xmlns:sodipodi="http://sodipodi.sourceforge.net/DTD/sodipodi-0.dtd"
   xmlns:inkscape="http://www.inkscape.org/namespaces/inkscape"
   version="1.1"
   id="Capa_1"
   x="0px"
   y="0px"
   width="485.221px"
   height="485.221px"
   viewBox="0 0 485.221 485.221"
   style="enable-background:new 0 0 485.221 485.221;"
   xml:space="preserve"
   inkscape:version="0.91 r13725"
   sodipodi:docname="businessman.svg"><metadata
     id="metadata41"><rdf:RDF><cc:Work
         rdf:about=""><dc:format>image/svg+xml</dc:format><dc:type
           rdf:resource="http://purl.org/dc/dcmitype/StillImage" /></cc:Work></rdf:RDF></metadata><defs
     id="defs39" /><sodipodi:namedview
     pagecolor="#ffffff"
     bordercolor="#666666"
     borderopacity="1"
     objecttolerance="10"
     gridtolerance="10"
     guidetolerance="10"
     inkscape:pageopacity="0"
     inkscape:pageshadow="2"
     inkscape:window-width="1301"
     inkscape:window-height="744"
     id="namedview37"
     showgrid="false"
     inkscape:zoom="0.9727526"
     inkscape:cx="421.85046"
     inkscape:cy="181.77112"
     inkscape:window-x="65"
     inkscape:window-y="24"
     inkscape:window-maximized="1"
     inkscape:current-layer="g3" /><g
     id="g3"
     transform="matrix(0.69938295,0,0,0.60412903,2.0560784,-37.966973)"><path
       d="m 28.699277,318.35963 c -1.474928,0.22309 -2.92656,0.32331 -4.352483,0.32331 -11.563243,0 -21.8170462,-7.07509 -23.95794115,-17.11558 C -1.9922401,290.24598 6.8131445,279.40922 20.065003,277.37669 79.708008,268.18531 143.775,242.20579 210.65366,200.47326 l -28.12083,-29.15292 134.17909,-19.17077 -47.6524,108.8824 -27.38095,-28.3793 C 167.20916,279.53141 97.360551,307.78921 28.699277,318.35963 Z m 44.394852,62.77453 -24.362823,0 c -13.440643,0 -24.362823,9.30944 -24.362823,20.81341 l 0,62.4519 c 0,11.50741 10.921377,20.81684 24.362823,20.81684 l 24.362823,0 c 13.465546,0 24.360412,-9.30943 24.360412,-20.81684 l 0,-62.4519 c 0,-11.50397 -10.894866,-20.81341 -24.360412,-20.81341 z m 194.892941,-83.26669 -24.36282,0 c -13.46314,0 -24.35801,9.30944 -24.35801,20.81547 l 0,145.71653 c 0,11.50741 10.89487,20.81684 24.35801,20.81684 l 24.36282,0 c 13.46795,0 24.36283,-9.30943 24.36283,-20.81684 l 0,-145.71653 c 0,-11.50534 -10.89567,-20.81547 -24.36283,-20.81547 z m 97.44968,-41.63437 -24.36603,0 c -13.46394,0 -24.3588,9.3115 -24.3588,20.81753 l 0,187.34953 c 0,11.5074 10.89486,20.81684 24.3588,20.81684 l 24.36603,0 c 13.46395,0 24.35881,-9.30944 24.35881,-20.81684 l 0,-187.35022 C 389.79637,265.5446 378.9007,256.2331 365.43675,256.2331 Z m -194.89616,83.266 -24.36121,0 c -13.44063,0 -24.36281,9.31287 -24.36281,20.81753 l 0,104.08353 c 0,11.5074 10.92137,20.81684 24.36281,20.81684 l 24.36121,0 c 13.46716,0 24.36202,-9.30944 24.36202,-20.81684 l 0,-104.08353 c 0,-11.50466 -10.89486,-20.81753 -24.36202,-20.81753 z"
       id="path5"
       inkscape:connector-curvature="0"
       style="fill:#f2f2f2" /></g><g
     id="g7" /><g
     id="g9" /><g
     id="g11" /><g
     id="g13" /><g
     id="g15" /><g
     id="g17" /><g
     id="g19" /><g
     id="g21" /><g
     id="g23" /><g
     id="g25" /><g
     id="g27" /><g
     id="g29" /><g
     id="g31" /><g
     id="g33" /><g
     id="g35" /></svg>